<svg preserveAspectRatio="none" overflow="visible" style="display: block;" width="107.362" height="160" viewBox="0 0 107.362 160" fill="none" xmlns="http://www.w3.org/2000/svg">
<path id="ring / progress" d="M27.3616 0C39.0435 -5.10632e-07 50.5837 2.55839 61.1711 7.49538C71.7585 12.4324 81.1362 19.6281 88.6452 28.577C96.1541 37.5258 101.612 48.0106 104.636 59.2945C107.659 70.5783 108.175 82.3874 106.146 93.8919C104.118 105.396 99.5942 116.317 92.8938 125.886C86.1933 135.455 77.4784 143.441 67.3616 149.282C57.2448 155.123 45.9715 158.677 34.3341 159.696C22.6966 160.714 10.9774 159.171 9.047e-07 155.175L2.73616 147.658C12.6158 151.254 23.1631 152.642 33.6368 151.726C44.1105 150.81 54.2565 147.611 63.3616 142.354C72.4668 137.097 80.3101 129.91 86.3406 121.298C92.371 112.685 96.4421 102.857 98.2678 92.5027C100.093 82.1487 99.6294 71.5205 96.9083 61.365C94.1871 51.2096 89.2749 41.7733 82.5168 33.7193C75.7587 25.6653 67.3188 19.1891 57.7901 14.7458C48.2615 10.3026 37.8753 8 27.3616 8L27.3616 0Z" fill="#00B5FF"/>
</svg>
